<svg width="54" height="54" viewBox="0 0 54 54" fill="none" xmlns="http://www.w3.org/2000/svg">
<g id="person">
<path id="icon" d="M27 27C24.5938 27 22.5339 26.1432 20.8203 24.4297C19.1068 22.7161 18.25 20.6562 18.25 18.25C18.25 15.8438 19.1068 13.7839 20.8203 12.0703C22.5339 10.3568 24.5938 9.5 27 9.5C29.4062 9.5 31.4661 10.3568 33.1797 12.0703C34.8932 13.7839 35.75 15.8438 35.75 18.25C35.75 20.6562 34.8932 22.7161 33.1797 24.4297C31.4661 26.1432 29.4062 27 27 27ZM9.5 44.5V38.375C9.5 37.1354 9.81901 35.9961 10.457 34.957C11.0951 33.918 11.9427 33.125 13 32.5781C15.2604 31.4479 17.5573 30.6003 19.8906 30.0352C22.224 29.4701 24.5938 29.1875 27 29.1875C29.4062 29.1875 31.776 29.4701 34.1094 30.0352C36.4427 30.6003 38.7396 31.4479 41 32.5781C42.0573 33.125 42.9049 33.918 43.543 34.957C44.181 35.9961 44.5 37.1354 44.5 38.375V44.5H9.5ZM13.875 40.125H40.125V38.375C40.125 37.974 40.0247 37.6094 39.8242 37.2812C39.6237 36.9531 39.3594 36.6979 39.0312 36.5156C37.0625 35.5312 35.0755 34.793 33.0703 34.3008C31.0651 33.8086 29.0417 33.5625 27 33.5625C24.9583 33.5625 22.9349 33.8086 20.9297 34.3008C18.9245 34.793 16.9375 35.5312 14.9688 36.5156C14.6406 36.6979 14.3763 36.9531 14.1758 37.2812C13.9753 37.6094 13.875 37.974 13.875 38.375V40.125ZM27 22.625C28.2031 22.625 29.2331 22.1966 30.0898 21.3398C30.9466 20.4831 31.375 19.4531 31.375 18.25C31.375 17.0469 30.9466 16.0169 30.0898 15.1602C29.2331 14.3034 28.2031 13.875 27 13.875C25.7969 13.875 24.7669 14.3034 23.9102 15.1602C23.0534 16.0169 22.625 17.0469 22.625 18.25C22.625 19.4531 23.0534 20.4831 23.9102 21.3398C24.7669 22.1966 25.7969 22.625 27 22.625Z" fill="white"/>
</g>
</svg>
